<svg width="512" height="512" version="1.1" viewBox="0 0 12.7 12.7" xmlns="http://www.w3.org/2000/svg" xmlns:xlink="http://www.w3.org/1999/xlink">
 <defs>
  <linearGradient id="a" x1="6.4195" x2="6.3958" y1=".59797" y2="12.191" gradientTransform="matrix(.99998 0 0 1.0233 -.025338 -.19328)" gradientUnits="userSpaceOnUse">
   <stop stop-color="#b93de9" offset="0"/>
   <stop stop-color="#662281" offset="1"/>
  </linearGradient>
 </defs>
 <circle cx="6.35" cy="6.35" r="5.9335" fill="url(#a)" stroke-width="1.0116"/>
 <g transform="matrix(.80588 0 0 .80588 1.3641 1.2538)" fill="none" stroke="#fff" stroke-linecap="round" stroke-width=".8px">
  <path transform="matrix(1 0 0 -1 .19808 11.984)" d="m6.0943 5.9899c0.16457 0.1173 0.0098785 0.35997-0.11145 0.43612-0.40848 0.25638-0.89022-0.11622-1.039-0.4965-0.32983-0.84299 0.37932-1.6794 1.1646-1.8967 1.4211-0.39338 2.7295 0.77904 3.0093 2.1158 0.36822 1.7593-0.79537 3.4576-2.3989 4.1096"/>
  <path transform="matrix(1 0 0 -1 .030284 12.252)" d="m6.3163 6.3608c-0.14689-0.18552 0.10611-0.40806 0.26737-0.45419 0.54289-0.15532 0.96335 0.42061 1.0068 0.89674 0.096424 1.0555-0.97349 1.7652-1.9275 1.7539-1.7263-0.020368-2.8161-1.765-2.6954-3.3595 0.15881-2.0986 2.0205-3.6297 4.0363-3.8406"/>
 </g>
</svg>
